<?xml version="1.0" encoding="UTF-8"?>
<!DOCTYPE svg PUBLIC "-//W3C//DTD SVG 1.1//EN" "http://www.w3.org/Graphics/SVG/1.1/DTD/svg11.dtd">
<svg xmlns="http://www.w3.org/2000/svg" version="1.1" width="374px" height="251px" style="shape-rendering:geometricPrecision; text-rendering:geometricPrecision; image-rendering:optimizeQuality; fill-rule:evenodd; clip-rule:evenodd" xmlns:xlink="http://www.w3.org/1999/xlink">
<g><path style="opacity:1" fill="#fefefe" d="M -0.5,-0.5 C 124.167,-0.5 248.833,-0.5 373.5,-0.5C 373.5,83.1667 373.5,166.833 373.5,250.5C 248.833,250.5 124.167,250.5 -0.5,250.5C -0.5,166.833 -0.5,83.1667 -0.5,-0.5 Z"/></g>
<g><path style="opacity:1" fill="#709683" d="M 107.5,39.5 C 109.905,40.7682 112.572,41.4349 115.5,41.5C 141.48,50.4914 157.814,68.4914 164.5,95.5C 164.41,98.1522 165.076,100.485 166.5,102.5C 166.5,102.833 166.5,103.167 166.5,103.5C 158.559,104.081 150.892,103.414 143.5,101.5C 142.285,87.3543 137.785,74.3543 130,62.5C 123.581,53.8854 115.414,47.8854 105.5,44.5C 96.3703,42.051 87.037,41.8843 77.5,44C 76.5842,44.2784 75.9175,44.7784 75.5,45.5C 72.8478,45.4095 70.5145,46.0762 68.5,47.5C 50.4884,56.8061 40.9884,71.8061 40,92.5C 38.3005,93.4061 36.4672,93.7394 34.5,93.5C 34.4998,75.4923 34.1664,57.4923 33.5,39.5C 35.5,39.5 37.5,39.5 39.5,39.5C 39.4207,42.2706 39.9207,44.9373 41,47.5C 41.7339,49.7358 43.2339,51.0692 45.5,51.5C 54.8167,45.9199 64.8167,41.7532 75.5,39C 86.1934,38.2631 96.8601,38.4298 107.5,39.5 Z"/></g>
<g><path style="opacity:1" fill="#b1c6bc" d="M 107.5,39.5 C 110.495,39.2938 113.162,39.9605 115.5,41.5C 112.572,41.4349 109.905,40.7682 107.5,39.5 Z"/></g>
<g><path style="opacity:1" fill="#95b1a3" d="M 320.5,40.5 C 276.154,39.8386 232.154,40.5052 188.5,42.5C 187.596,41.791 187.263,40.791 187.5,39.5C 232.003,39.1679 276.336,39.5013 320.5,40.5 Z"/></g>
<g><path style="opacity:1" fill="#6e9482" d="M 320.5,40.5 C 319.614,56.4811 319.281,72.4811 319.5,88.5C 317.833,88.5 316.167,88.5 314.5,88.5C 314.044,77.4672 311.877,66.8006 308,56.5C 305.054,51.5551 300.888,48.0551 295.5,46C 285.541,44.7443 275.541,44.2443 265.5,44.5C 264.503,63.9929 264.17,83.6596 264.5,103.5C 257.5,103.5 250.5,103.5 243.5,103.5C 243.5,83.8333 243.5,64.1667 243.5,44.5C 234.494,44.3336 225.494,44.5002 216.5,45C 215.584,45.2784 214.918,45.7784 214.5,46.5C 209.225,47.2472 205.058,49.9139 202,54.5C 199.95,57.1476 198.784,60.1476 198.5,63.5C 197.076,65.5145 196.41,67.8478 196.5,70.5C 195.816,76.6799 194.816,82.6799 193.5,88.5C 192.167,88.5 190.833,88.5 189.5,88.5C 189.828,77.6536 189.494,66.9869 188.5,56.5C 188.5,51.8333 188.5,47.1667 188.5,42.5C 232.154,40.5052 276.154,39.8386 320.5,40.5 Z"/></g>
<g><path style="opacity:1" fill="#c4d4cc" d="M 105.5,44.5 C 95.461,43.2804 85.461,43.6137 75.5,45.5C 75.9175,44.7784 76.5842,44.2784 77.5,44C 87.037,41.8843 96.3703,42.051 105.5,44.5 Z"/></g>
<g><path style="opacity:1" fill="#c0d0c8" d="M 75.5,45.5 C 73.4855,46.9238 71.1522,47.5905 68.5,47.5C 70.5145,46.0762 72.8478,45.4095 75.5,45.5 Z"/></g>
<g><path style="opacity:1" fill="#e7edea" d="M 243.5,103.5 C 243.5,103.833 243.5,104.167 243.5,104.5C 242.503,85.0071 242.17,65.3404 242.5,45.5C 233.148,45.4343 223.815,45.7676 214.5,46.5C 214.918,45.7784 215.584,45.2784 216.5,45C 225.494,44.5002 234.494,44.3336 243.5,44.5C 243.5,64.1667 243.5,83.8333 243.5,103.5 Z"/></g>
<g><path style="opacity:1" fill="#90ad9f" d="M 265.5,44.5 C 265.5,64.5 265.5,84.5 265.5,104.5C 258.167,104.5 250.833,104.5 243.5,104.5C 243.5,104.167 243.5,103.833 243.5,103.5C 250.5,103.5 257.5,103.5 264.5,103.5C 264.17,83.6596 264.503,63.9929 265.5,44.5 Z"/></g>
<g><path style="opacity:1" fill="#dbe4df" d="M 188.5,56.5 C 189.494,66.9869 189.828,77.6536 189.5,88.5C 190.833,88.5 192.167,88.5 193.5,88.5C 192.081,89.4511 190.415,89.7845 188.5,89.5C 188.5,78.5 188.5,67.5 188.5,56.5 Z"/></g>
<g><path style="opacity:1" fill="#c7d6ce" d="M 198.5,63.5 C 198.59,66.1522 197.924,68.4855 196.5,70.5C 196.41,67.8478 197.076,65.5145 198.5,63.5 Z"/></g>
<g><path style="opacity:1" fill="#a2bbaf" d="M 164.5,95.5 C 165.924,97.5145 166.59,99.8478 166.5,102.5C 165.076,100.485 164.41,98.1522 164.5,95.5 Z"/></g>
<g><path style="opacity:1" fill="#9cb6a9" d="M 143.5,101.5 C 150.892,103.414 158.559,104.081 166.5,103.5C 159.018,104.492 151.352,104.825 143.5,104.5C 143.5,103.5 143.5,102.5 143.5,101.5 Z"/></g>
<g><path style="opacity:1" fill="#84a494" d="M 268.5,113.5 C 270.094,113.92 271.594,114.586 273,115.5C 274.261,115.241 275.261,114.574 276,113.5C 276.456,115.713 275.456,116.713 273,116.5C 270.648,116.586 269.148,115.586 268.5,113.5 Z"/></g>
<g><path style="opacity:1" fill="#799c8b" d="M 81.5,134.5 C 81.5,129.167 81.5,123.833 81.5,118.5C 79.1667,118.5 76.8333,118.5 74.5,118.5C 74.5,121.833 74.5,125.167 74.5,128.5C 74.458,131.585 73.1247,133.919 70.5,135.5C 70.1667,135.167 69.8333,134.833 69.5,134.5C 70.8064,133.088 71.6397,131.421 72,129.5C 72.4988,125.514 72.6655,121.514 72.5,117.5C 76.5,117.5 80.5,117.5 84.5,117.5C 84.5,123.5 84.5,129.5 84.5,135.5C 83.209,135.737 82.209,135.404 81.5,134.5 Z"/></g>
<g><path style="opacity:1" fill="#729785" d="M 105.5,135.5 C 105.5,129.833 105.5,124.167 105.5,118.5C 102.833,118.5 100.167,118.5 97.5,118.5C 97.5,121.833 97.5,125.167 97.5,128.5C 97.628,130.655 97.128,132.655 96,134.5C 94.9505,135.517 93.7839,135.684 92.5,135C 93.8932,133.829 94.7265,132.329 95,130.5C 95.499,126.179 95.6657,121.846 95.5,117.5C 99.5,117.5 103.5,117.5 107.5,117.5C 108.12,123.926 107.453,129.926 105.5,135.5 Z"/></g>
<g><path style="opacity:1" fill="#759988" d="M 143.5,117.5 C 147.5,117.5 151.5,117.5 155.5,117.5C 155.083,124.287 155.75,130.954 157.5,137.5C 157.167,138.5 156.833,139.5 156.5,140.5C 155.548,138.955 155.215,137.288 155.5,135.5C 150.833,135.5 146.167,135.5 141.5,135.5C 141.785,137.288 141.452,138.955 140.5,140.5C 140.167,139.5 139.833,138.5 139.5,137.5C 141.286,135.18 142.453,132.513 143,129.5C 143.499,125.514 143.666,121.514 143.5,117.5 Z"/></g>
<g><path style="opacity:1" fill="#6c9380" d="M 200.5,117.5 C 205.363,117.181 210.03,117.514 214.5,118.5C 212.5,118.5 210.5,118.5 208.5,118.5C 208.5,124.167 208.5,129.833 208.5,135.5C 207.833,135.5 207.167,135.5 206.5,135.5C 206.5,129.833 206.5,124.167 206.5,118.5C 204.265,118.795 202.265,118.461 200.5,117.5 Z"/></g>
<g><path style="opacity:1" fill="#779b89" d="M 291.5,117.5 C 295.5,117.5 299.5,117.5 303.5,117.5C 303.5,123.167 303.5,128.833 303.5,134.5C 304.5,134.5 305.5,134.5 306.5,134.5C 306.799,136.604 306.466,138.604 305.5,140.5C 303.783,139.332 303.116,137.665 303.5,135.5C 299.167,135.5 294.833,135.5 290.5,135.5C 290.5,137.167 290.5,138.833 290.5,140.5C 289.5,140.5 288.5,140.5 287.5,140.5C 287.5,138.5 287.5,136.5 287.5,134.5C 288.5,134.5 289.5,134.5 290.5,134.5C 291.354,128.879 291.687,123.212 291.5,117.5 Z"/></g>
<g><path style="opacity:1" fill="#80a191" d="M 222.5,117.5 C 226.584,117.043 230.417,117.71 234,119.5C 235.16,126.175 232.327,129.175 225.5,128.5C 225.5,130.833 225.5,133.167 225.5,135.5C 224.5,135.5 223.5,135.5 222.5,135.5C 222.5,129.5 222.5,123.5 222.5,117.5 Z"/></g>
<g><path style="opacity:1" fill="#7a9d8b" d="M 50.5,117.5 C 59.7051,117.206 63.2051,121.54 61,130.5C 58.05,135.338 53.8834,136.671 48.5,134.5C 47.1667,133.5 47.1667,132.5 48.5,131.5C 50.8808,133.392 53.5475,133.892 56.5,133C 57.8613,131.416 58.528,129.582 58.5,127.5C 47.8333,127.167 47.8333,126.833 58.5,126.5C 57.9166,119.236 54.4166,117.569 48,121.5C 47.3333,120.833 47.3333,120.167 48,119.5C 48.9947,118.934 49.828,118.267 50.5,117.5 Z"/></g>
<g><path style="opacity:1" fill="#d0dcd6" d="M 81.5,134.5 C 80.5128,129.695 80.1795,124.695 80.5,119.5C 78.8333,119.5 77.1667,119.5 75.5,119.5C 75.81,122.713 75.4767,125.713 74.5,128.5C 74.5,125.167 74.5,121.833 74.5,118.5C 76.8333,118.5 79.1667,118.5 81.5,118.5C 81.5,123.833 81.5,129.167 81.5,134.5 Z"/></g>
<g><path style="opacity:1" fill="#97b2a5" d="M 105.5,135.5 C 104.512,130.36 104.179,125.026 104.5,119.5C 102.5,119.5 100.5,119.5 98.5,119.5C 98.81,122.713 98.4767,125.713 97.5,128.5C 97.5,125.167 97.5,121.833 97.5,118.5C 100.167,118.5 102.833,118.5 105.5,118.5C 105.5,124.167 105.5,129.833 105.5,135.5 Z"/></g>
<g><path style="opacity:1" fill="#bfd1c8" d="M 152.5,119.5 C 150.5,119.5 148.5,119.5 146.5,119.5C 146.806,122.385 146.473,125.052 145.5,127.5C 145.5,124.5 145.5,121.5 145.5,118.5C 148.059,118.198 150.393,118.532 152.5,119.5 Z"/></g>
<g><path style="opacity:1" fill="#fafbfa" d="M 152.5,119.5 C 152.5,124.5 152.5,129.5 152.5,134.5C 149.833,134.5 147.167,134.5 144.5,134.5C 144.993,132.194 145.326,129.861 145.5,127.5C 146.473,125.052 146.806,122.385 146.5,119.5C 148.5,119.5 150.5,119.5 152.5,119.5 Z"/></g>
<g><path style="opacity:1" fill="#c1d2c9" d="M 200.5,117.5 C 202.265,118.461 204.265,118.795 206.5,118.5C 206.5,124.167 206.5,129.833 206.5,135.5C 205.512,130.36 205.179,125.026 205.5,119.5C 203.396,119.799 201.396,119.466 199.5,118.5C 199.624,117.893 199.957,117.56 200.5,117.5 Z"/></g>
<g><path style="opacity:1" fill="#bfd0c8" d="M 214.5,118.5 C 213.081,119.451 211.415,119.784 209.5,119.5C 209.821,125.026 209.488,130.36 208.5,135.5C 208.5,129.833 208.5,124.167 208.5,118.5C 210.5,118.5 212.5,118.5 214.5,118.5 Z"/></g>
<g><path style="opacity:1" fill="#c8d6cf" d="M 229.5,119.5 C 228.5,119.5 227.5,119.5 226.5,119.5C 226.5,121.833 226.5,124.167 226.5,126.5C 227.5,126.5 228.5,126.5 229.5,126.5C 228.432,127.434 227.099,127.768 225.5,127.5C 225.5,124.5 225.5,121.5 225.5,118.5C 227.099,118.232 228.432,118.566 229.5,119.5 Z"/></g>
<g><path style="opacity:1" fill="#fdfefd" d="M 229.5,119.5 C 230.947,120.134 231.613,121.301 231.5,123C 231.613,124.699 230.947,125.866 229.5,126.5C 228.5,126.5 227.5,126.5 226.5,126.5C 226.5,124.167 226.5,121.833 226.5,119.5C 227.5,119.5 228.5,119.5 229.5,119.5 Z"/></g>
<g><path style="opacity:1" fill="#7b9d8c" d="M 246.5,126.5 C 249.167,126.5 251.833,126.5 254.5,126.5C 254.737,125.209 254.404,124.209 253.5,123.5C 252.172,119.746 249.506,118.579 245.5,120C 244.576,121.489 243.576,121.656 242.5,120.5C 247.287,116.253 251.787,116.586 256,121.5C 258.556,131.604 254.723,136.104 244.5,135C 241.808,132.042 242.141,131.375 245.5,133C 250.829,134.822 253.496,132.989 253.5,127.5C 250.347,127.843 248.013,127.51 246.5,126.5 Z"/></g>
<g><path style="opacity:1" fill="#7a9d8c" d="M 277.5,135.5 C 277.666,130.821 277.499,126.155 277,121.5C 276.283,122.044 275.783,122.711 275.5,123.5C 273.896,126.943 272.062,130.277 270,133.5C 268.89,135.037 267.39,135.703 265.5,135.5C 265.5,129.5 265.5,123.5 265.5,117.5C 266.5,117.5 267.5,117.5 268.5,117.5C 268.334,121.846 268.501,126.179 269,130.5C 271.732,126.759 274.066,122.759 276,118.5C 277.011,117.663 278.178,117.33 279.5,117.5C 280.12,123.926 279.453,129.926 277.5,135.5 Z"/></g>
<g><path style="opacity:1" fill="#fbfcfc" d="M 294.5,119.5 C 296.5,119.5 298.5,119.5 300.5,119.5C 300.5,124.5 300.5,129.5 300.5,134.5C 297.813,134.664 295.146,134.497 292.5,134C 294.272,129.369 294.938,124.536 294.5,119.5 Z"/></g>
<g><path style="opacity:1" fill="#bfd1c8" d="M 294.5,119.5 C 296.607,118.532 298.941,118.198 301.5,118.5C 301.821,124.026 301.488,129.36 300.5,134.5C 300.5,129.5 300.5,124.5 300.5,119.5C 298.5,119.5 296.5,119.5 294.5,119.5 Z"/></g>
<g><path style="opacity:1" fill="#abc1b6" d="M 277.5,135.5 C 276.833,131.5 276.167,127.5 275.5,123.5C 275.783,122.711 276.283,122.044 277,121.5C 277.499,126.155 277.666,130.821 277.5,135.5 Z"/></g>
<g><path style="opacity:1" fill="#789c8a" d="M 122.5,117.5 C 123.822,117.33 124.989,117.663 126,118.5C 127.975,124.096 130.142,129.596 132.5,135C 129.678,135.699 128.012,134.532 127.5,131.5C 124.914,130.52 122.247,130.187 119.5,130.5C 119.617,132.484 118.95,134.15 117.5,135.5C 117.167,134.833 116.833,134.167 116.5,133.5C 118.51,128.151 120.51,122.817 122.5,117.5 Z"/></g>
<g><path style="opacity:1" fill="#f1f5f3" d="M 125.5,126.5 C 125.38,127.586 124.713,128.253 123.5,128.5C 122.584,128.457 121.917,128.124 121.5,127.5C 122.718,120.516 124.051,120.183 125.5,126.5 Z"/></g>
<g><path style="opacity:1" fill="#789c8a" d="M 171.5,117.5 C 172.822,117.33 173.989,117.663 175,118.5C 176.975,124.096 179.142,129.596 181.5,135C 178.678,135.699 177.012,134.532 176.5,131.5C 173.914,130.52 171.247,130.187 168.5,130.5C 168.617,132.484 167.95,134.15 166.5,135.5C 166.167,134.833 165.833,134.167 165.5,133.5C 167.51,128.151 169.51,122.817 171.5,117.5 Z"/></g>
<g><path style="opacity:1" fill="#f1f5f3" d="M 174.5,126.5 C 174.38,127.586 173.713,128.253 172.5,128.5C 171.584,128.457 170.917,128.124 170.5,127.5C 171.718,120.516 173.051,120.183 174.5,126.5 Z"/></g>
<g><path style="opacity:1" fill="#b8cbc1" d="M 253.5,123.5 C 254.404,124.209 254.737,125.209 254.5,126.5C 251.833,126.5 249.167,126.5 246.5,126.5C 249.159,126.083 251.492,125.083 253.5,123.5 Z"/></g>
<g><path style="opacity:1" fill="#b9ccc2" d="M 125.5,126.5 C 126.404,127.209 126.737,128.209 126.5,129.5C 124.396,129.799 122.396,129.466 120.5,128.5C 120.624,127.893 120.957,127.56 121.5,127.5C 121.917,128.124 122.584,128.457 123.5,128.5C 124.713,128.253 125.38,127.586 125.5,126.5 Z"/></g>
<g><path style="opacity:1" fill="#b9ccc2" d="M 174.5,126.5 C 175.404,127.209 175.737,128.209 175.5,129.5C 173.396,129.799 171.396,129.466 169.5,128.5C 169.624,127.893 169.957,127.56 170.5,127.5C 170.917,128.124 171.584,128.457 172.5,128.5C 173.713,128.253 174.38,127.586 174.5,126.5 Z"/></g>
<g><path style="opacity:1" fill="#94b0a2" d="M 142.5,151.5 C 149.982,150.508 157.648,150.175 165.5,150.5C 165.737,151.791 165.404,152.791 164.5,153.5C 157.576,151.537 150.243,150.87 142.5,151.5 Z"/></g>
<g><path style="opacity:1" fill="#709684" d="M 67.5,199.5 C 70.145,201.31 73.145,202.31 76.5,202.5C 76.8333,202.5 77.1667,202.5 77.5,202.5C 86.1554,205.073 94.8221,205.073 103.5,202.5C 118.999,196.836 129.833,186.169 136,170.5C 138.341,164.091 140.508,157.757 142.5,151.5C 150.243,150.87 157.576,151.537 164.5,153.5C 156.519,185.479 136.186,203.812 103.5,208.5C 95.1381,208.665 86.8048,208.332 78.5,207.5C 74.767,205.589 70.767,204.256 66.5,203.5C 58.9465,200.095 51.7798,196.095 45,191.5C 42.8121,191.354 41.4788,192.354 41,194.5C 39.8054,198.751 39.3054,203.085 39.5,207.5C 37.5,207.5 35.5,207.5 33.5,207.5C 34.1665,188.507 34.4998,169.507 34.5,150.5C 36.4672,150.261 38.3005,150.594 40,151.5C 39.963,168.745 46.1296,183.245 58.5,195C 61.2432,197.038 64.2432,198.538 67.5,199.5 Z"/></g>
<g><path style="opacity:1" fill="#6c9380" d="M 243.5,151.5 C 250.5,151.5 257.5,151.5 264.5,151.5C 264.172,162.346 264.506,173.013 265.5,183.5C 264.758,189.991 266.758,195.325 271.5,199.5C 272.058,200.79 273.058,201.623 274.5,202C 277.146,202.497 279.813,202.664 282.5,202.5C 282.833,202.5 283.167,202.5 283.5,202.5C 284.919,203.451 286.585,203.784 288.5,203.5C 288.5,204.5 288.5,205.5 288.5,206.5C 265.833,206.5 243.167,206.5 220.5,206.5C 220.5,205.5 220.5,204.5 220.5,203.5C 223.85,203.665 227.183,203.498 230.5,203C 231.737,202.768 232.737,202.268 233.5,201.5C 239.261,199.682 242.428,195.682 243,189.5C 243.5,176.838 243.667,164.171 243.5,151.5 Z"/></g>
<g><path style="opacity:1" fill="#8fac9e" d="M 243.5,151.5 C 250.648,150.508 257.981,150.175 265.5,150.5C 265.5,161.5 265.5,172.5 265.5,183.5C 264.506,173.013 264.172,162.346 264.5,151.5C 257.5,151.5 250.5,151.5 243.5,151.5 Z"/></g>
<g><path style="opacity:1" fill="#cad8d0" d="M 67.5,199.5 C 70.9164,199.528 73.9164,200.528 76.5,202.5C 73.145,202.31 70.145,201.31 67.5,199.5 Z"/></g>
<g><path style="opacity:1" fill="#c9d7d0" d="M 271.5,199.5 C 275.417,199.976 279.084,200.976 282.5,202.5C 279.813,202.664 277.146,202.497 274.5,202C 273.058,201.623 272.058,200.79 271.5,199.5 Z"/></g>
<g><path style="opacity:1" fill="#9cb6a9" d="M 66.5,203.5 C 70.767,204.256 74.767,205.589 78.5,207.5C 74.0845,207.139 70.0845,205.806 66.5,203.5 Z"/></g>
<g><path style="opacity:1" fill="#ccd9d3" d="M 77.5,202.5 C 86.1699,203.76 94.8365,203.76 103.5,202.5C 94.8221,205.073 86.1554,205.073 77.5,202.5 Z"/></g>
<g><path style="opacity:1" fill="#92afa1" d="M 233.5,201.5 C 232.737,202.268 231.737,202.768 230.5,203C 227.183,203.498 223.85,203.665 220.5,203.5C 220.5,204.5 220.5,205.5 220.5,206.5C 243.167,206.5 265.833,206.5 288.5,206.5C 288.5,205.5 288.5,204.5 288.5,203.5C 286.585,203.784 284.919,203.451 283.5,202.5C 285.5,202.5 287.5,202.5 289.5,202.5C 289.5,204.167 289.5,205.833 289.5,207.5C 266.167,207.5 242.833,207.5 219.5,207.5C 219.5,205.833 219.5,204.167 219.5,202.5C 224.203,202.563 228.87,202.229 233.5,201.5 Z"/></g>
<g><path style="opacity:1" fill="#bfd0c8" d="M 78.5,207.5 C 86.8048,208.332 95.1381,208.665 103.5,208.5C 96.3451,209.655 89.0118,209.822 81.5,209C 80.2625,208.768 79.2625,208.268 78.5,207.5 Z"/></g>
</svg>
